#!OML:ASF X:\für Bonn\!DataBase\2005_08_12_Daniel\c3d\Daniel.ASF
:FULLY-SPECIFIED
:DEGREES
282
root 15.4896 1.35544 0.916197 -804.434 -85.5692 -382.567
lowerback 50.5065 -3.55619 5.95175
upperback 18.4763 -5.16541 -3.26603
thorax -0.437633 -3.78489 -4.33894
lowerneck 8.77494 2.79613 -5.77971
upperneck 12.2198 2.84751 0.812235
head 2.30758 0.979989 1.20555
rclavicle 1.55052e-014 2.40529e-014
rhumerus -50.1401 33.5704 -106.346
rradius 45.3751
rwrist -40.317
rhand -40.8545 -359.808
rfingers 7.12502
rthumb -13.7914 -389.331
lclavicle 1.55052e-014 2.40529e-014
lhumerus -742.002 9.6072 -642.583
lradius 56.5256
lwrist 24.0591
lhand -18.7048 359.868
lfingers 7.12502
lthumb 7.59011 389.712
rfemur 350.012 -16.0768 374.229
rtibia 61.6948
rfoot 19.9228 -4.72953
rtoes 10.4847
lfemur -32.6993 33.0843 -5.49879
ltibia 110.858
lfoot 22.9299 2.57396
ltoes 10.9888
283
root 15.4963 1.35246 0.922937 -804.304 -85.5735 -383.096
lowerback 50.0664 -3.49522 5.79661
upperback 18.4812 -5.15601 -3.23299
thorax -0.377738 -3.78111 -4.25076
lowerneck 8.9129 2.81759 -5.65375
upperneck 12.1721 2.88407 0.664706
head 2.27024 1.00057 1.13293
rclavicle 0 -2.98177e-014
rhumerus -48.0895 33.0361 -105.321
rradius 43.9885
rwrist -41.0163
rhand -39.861 -360.522
rfingers 7.12502
rthumb -12.8338 -390.107
lclavicle 0 -2.98177e-014
lhumerus -741.584 9.44622 -642.741
lradius 55.9389
lwrist 23.0848
lhand -18.5462 360.074
lfingers 7.12502
lthumb 7.74316 389.912
rfemur 350.457 -15.8436 374.156
rtibia 61.6436
rfoot 19.9157 -4.68178
rtoes 10.2421
lfemur -31.9855 32.0889 -5.41332
ltibia 109.882
lfoot 22.947 2.9395
ltoes 10.5693
284
root 15.502 1.34851 0.930384 -804.217 -85.5792 -383.618
lowerback 49.6928 -3.4602 5.66258
upperback 18.4647 -5.16645 -3.23188
thorax -0.352904 -3.78459 -4.19478
lowerneck 9.03601 2.84715 -5.48865
upperneck 12.1286 2.93698 0.504279
head 2.23707 1.03091 1.04984
rclavicle 1.78906e-015 -2.68359e-014
rhumerus -46.0894 32.261 -104.34
rradius 42.5496
rwrist -41.1856
rhand -38.9162 -361.024
rfingers 7.12502
rthumb -11.9229 -390.664
lclavicle 1.78906e-015 -2.68359e-014
lhumerus -741.224 9.29471 -642.965
lradius 55.3475
lwrist 22.1654
lhand -18.4487 360.375
lfingers 7.12502
lthumb 7.83725 390.21
rfemur 350.934 -15.5772 374.083
rtibia 61.6006
rfoot 19.9478 -4.67541
rtoes 9.98532
lfemur -31.2405 31.074 -5.33534
ltibia 108.887
lfoot 23.0135 3.19322
ltoes 10.0333
285
root 15.5079 1.34482 0.938069 -803.965 -85.5823 -384.282
lowerback 49.3053 -3.42762 5.513
upperback 18.4181 -5.18006 -3.20551
thorax -0.35526 -3.79035 -4.10172
lowerneck 9.22333 2.88708 -5.37772
upperneck 12.0757 2.99385 0.342093
head 2.18988 1.06029 0.974429
rclavicle -1.33186e-014 -4.13472e-014
rhumerus -44.234 31.4142 -103.418
rradius 41.0975
rwrist -40.8813
rhand -38.0186 -361.397
rfingers 7.12502
rthumb -11.0572 -391.085
lclavicle -1.33186e-014 -4.13472e-014
lhumerus -740.863 9.24028 -643.14
lradius 54.643
lwrist 21.3236
lhand -18.3121 360.587
lfingers 7.12502
lthumb 7.96908 390.417
rfemur 351.376 -15.3025 374.015
rtibia 61.5758
rfoot 19.9987 -4.70914
rtoes 9.86018
lfemur -30.5326 30.0268 -5.30689
ltibia 107.876
lfoot 23.1063 3.46104
ltoes 9.59891
286
root 15.5123 1.34064 0.945885 -803.703 -85.5846 -384.949
lowerback 48.89 -3.39289 5.37634
upperback 18.3955 -5.18696 -3.18434
thorax -0.325493 -3.79146 -4.02561
lowerneck 9.37663 2.91289 -5.25325
upperneck 12.0048 3.03648 0.188501
head 2.14312 1.0848 0.900267
rclavicle -2.76311e-014 -3.81667e-014
rhumerus -42.3322 30.5053 -102.551
rradius 39.5443
rwrist -40.2229
rhand -37.2416 -361.652
rfingers 7.12502
rthumb -10.3077 -391.38
lclavicle -2.76311e-014 -3.81667e-014
lhumerus -740.474 9.18734 -643.311
lradius 53.8965
lwrist 20.4467
lhand -18.1908 360.859
lfingers 7.12502
lthumb 8.08623 390.685
rfemur 351.788 -14.9884 373.96
rtibia 61.5663
rfoot 20.054 -4.76446
rtoes 9.66735
lfemur -29.8464 29.003 -5.3005
ltibia 106.872
lfoot 23.2571 3.60262
ltoes 8.99449
287
root 15.5173 1.33673 0.953534 -803.415 -85.5816 -385.678
lowerback 48.5284 -3.36557 5.2273
upperback 18.3539 -5.20633 -3.15848
thorax -0.32193 -3.80135 -3.93088
lowerneck 9.51997 2.95237 -5.14058
upperneck 11.956 3.09775 0.0223566
head 2.10531 1.11707 0.824465
rclavicle 1.96797e-014 -3.77691e-014
rhumerus -40.5458 29.6537 -101.817
rradius 37.9633
rwrist -39.1798
rhand -36.6281 -361.914
rfingers 7.12502
rthumb -9.71582 -391.67
lclavicle 1.96797e-014 -3.77691e-014
lhumerus -740.086 9.21252 -643.477
lradius 53.0769
lwrist 19.6469
lhand -18.0205 361.048
lfingers 7.12502
lthumb 8.25054 390.867
rfemur 352.239 -14.6403 373.899
rtibia 61.5666
rfoot 20.1422 -4.86589
rtoes 9.715
lfemur -29.1341 27.971 -5.30896
ltibia 105.85
lfoot 23.4972 3.58004
ltoes 8.27187
288
root 15.5236 1.33303 0.961626 -803.235 -85.6063 -386.28
lowerback 48.1252 -3.33879 5.09644
upperback 18.3248 -5.21851 -3.12963
thorax -0.296309 -3.80582 -3.84661
lowerneck 9.70377 2.9838 -5.01325
upperneck 11.8492 3.14851 -0.163786
head 2.04273 1.14649 0.738959
rclavicle 6.16232e-015 9.10434e-014
rhumerus -38.8319 28.748 -101.172
rradius 36.3794
rwrist -37.7994
rhand -36.1796 -362.006
rfingers 7.12502
rthumb -9.28312 -391.781
lclavicle 6.16232e-015 9.10434e-014
lhumerus -739.696 9.24474 -643.626
lradius 52.2224
lwrist 18.8501
lhand -17.8835 361.239
lfingers 7.12502
lthumb 8.38274 391.053
rfemur 352.654 -14.2564 373.887
rtibia 61.5727
rfoot 20.2591 -4.96039
rtoes 9.7556
lfemur -28.463 26.9539 -5.31184
ltibia 104.829
lfoot 23.8199 3.36979
ltoes 7.50661
289
root 15.5317 1.32928 0.969714 -802.983 -85.6029 -386.942
lowerback 47.7298 -3.31994 4.95068
upperback 18.2796 -5.24407 -3.10398
thorax -0.28879 -3.81694 -3.75242
lowerneck 9.78728 3.02743 -4.94369
upperneck 11.8377 3.21545 -0.312723
head 2.02693 1.17932 0.677543
rclavicle 4.33351e-014 3.57812e-014
rhumerus -37.2071 27.8417 -100.614
rradius 34.7803
rwrist -36.1243
rhand -35.9051 -361.972
rfingers 7.12502
rthumb -9.01818 -391.759
lclavicle 4.33351e-014 3.57812e-014
lhumerus -739.344 9.30652 -643.766
lradius 51.3744
lwrist 18.1554
lhand -17.7127 361.419
lfingers 7.12502
lthumb 8.54759 391.226
rfemur 353.047 -13.8681 373.843
rtibia 61.6011
rfoot 20.4119 -5.10606
rtoes 10.118
lfemur -27.8124 25.9119 -5.39536
ltibia 103.785
lfoot 24.1896 3.02919
ltoes 6.63813
290
root 15.5409 1.32528 0.977507 -802.644 -85.6146 -387.73
lowerback 46.4242 -3.25322 4.82176
upperback 19.1068 -5.2544 -3.07071
thorax -0.207293 -3.82868 -3.73559
lowerneck 9.87253 3.05247 -4.80196
upperneck 11.8099 3.26612 -0.491861
head 2.00743 1.20744 0.59474
rclavicle 3.89618e-014 -7.35503e-014
rhumerus -35.6837 26.8432 -100.125
rradius 33.2333
rwrist -34.1407
rhand -35.763 -361.848
rfingers 7.12502
rthumb -8.88111 -391.641
lclavicle 3.89618e-014 -7.35503e-014
lhumerus -738.978 9.31957 -643.911
lradius 50.4922
lwrist 17.4488
lhand -17.5964 361.556
lfingers 7.12502
lthumb 8.65984 391.359
rfemur 353.481 -13.4632 373.827
rtibia 61.6374
rfoot 20.5875 -5.23877
rtoes 10.5627
lfemur -27.1192 24.821 -5.47252
ltibia 102.725
lfoot 24.5876 2.61595
ltoes 6.07051
291
root 15.5519 1.322 0.985193 -802.597 -85.6263 -388.202
lowerback 46.0705 -3.23322 4.66431
upperback 19.0326 -5.27835 -3.03852
thorax -0.205556 -3.84104 -3.62361
lowerneck 9.88521 3.09787 -4.75812
upperneck 11.8231 3.33961 -0.645353
head 2.01154 1.24205 0.537723
rclavicle -3.33958e-014 -4.13472e-014
rhumerus -34.2761 25.9402 -99.7255
rradius 31.7456
rwrist -32.0965
rhand -35.7935 -361.56
rfingers 7.12502
rthumb -8.91058 -391.352
lclavicle -3.33958e-014 -4.13472e-014
lhumerus -738.655 9.43462 -644.031
lradius 49.6054
lwrist 16.7768
lhand -17.4842 361.642
lfingers 7.12502
lthumb 8.76814 391.44
rfemur 353.855 -13.0262 373.828
rtibia 61.7114
rfoot 20.809 -5.25305
rtoes 10.6589
lfemur -26.4335 23.7397 -5.56165
ltibia 101.66
lfoot 24.9389 2.18584
ltoes 5.64125
292
root 15.5631 1.31797 0.993324 -802.139 -85.6204 -389.098
lowerback 45.7342 -3.24038 4.52766
upperback 18.9568 -5.32667 -3.02022
thorax -0.212156 -3.8637 -3.52664
lowerneck 9.88884 3.14658 -4.65384
upperneck 11.8464 3.42618 -0.838772
head 2.02198 1.28472 0.458259
rclavicle -4.29375e-014 -7.31528e-014
rhumerus -32.9422 24.9582 -99.3666
rradius 30.3079
rwrist -29.9068
rhand -35.9508 -361.17
rfingers 7.12502
rthumb -9.0623 -390.955
lclavicle -4.29375e-014 -7.31528e-014
lhumerus -738.343 9.57799 -644.158
lradius 48.6877
lwrist 16.0062
lhand -17.4326 361.628
lfingers 7.12502
lthumb 8.8179 391.424
rfemur 354.219 -12.6175 373.813
rtibia 61.8262
rfoot 21.0778 -5.1846
rtoes 10.6811
lfemur -25.7305 22.6251 -5.67289
ltibia 100.59
lfoot 25.2347 1.75271
ltoes 5.4682
